<?xml version="1.0" encoding="utf-8"?>
<!-- Generator: Adobe Illustrator 25.0.1, SVG Export Plug-In . SVG Version: 6.00 Build 0)  -->
<svg version="1.1" id="Calque_1" xmlns="http://www.w3.org/2000/svg" xmlns:xlink="http://www.w3.org/1999/xlink" x="0px" y="0px"
	 viewBox="0 0 566.6 177.2" style="enable-background:new 0 0 566.6 177.2;" xml:space="preserve">
<style type="text/css">
	.st0{fill:#777778;}
	.st1{fill:#A8A8A8;}
	.st2{fill:#1797C2;}
	.st3{fill:#FFFFFF;}
</style>
<rect x="389.4" y="0.2" class="st0" width="177.2" height="177.2"/>
<rect x="194.7" y="0.2" class="st1" width="177.2" height="177.2"/>
<rect y="0.2" class="st2" width="177.2" height="177.2"/>
<g>
	<g>
		<path class="st3" d="M65.7,129.9V47.7h12.4v71.5h37.2v10.7H65.7z"/>
	</g>
	<g>
		<path class="st3" d="M253.2,129.9l-22.8-82.2h13l16,63.6h0.8l16.7-63.6h12.9l16.7,63.7h0.8l16-63.7h13.1l-22.8,82.2h-12.5
			l-17.3-61.6H283l-17.3,61.6H253.2z"/>
	</g>
	<g>
		<path class="st3" d="M495.5,69.2c-0.4-3.8-2.2-6.7-5.3-8.8c-3.1-2.1-7-3.1-11.7-3.1c-3.4,0-6.3,0.5-8.7,1.6
			c-2.5,1.1-4.4,2.5-5.7,4.3c-1.4,1.8-2,3.9-2,6.2c0,2,0.5,3.6,1.4,5.1s2.1,2.6,3.7,3.6c1.5,1,3.1,1.7,4.9,2.4
			c1.7,0.6,3.4,1.1,5,1.5l8,2.1c2.6,0.6,5.3,1.5,8.1,2.6c2.8,1.1,5.3,2.5,7.7,4.3c2.4,1.8,4.3,4,5.7,6.7s2.2,5.8,2.2,9.5
			c0,4.7-1.2,8.8-3.6,12.4c-2.4,3.6-5.9,6.5-10.4,8.5c-4.5,2.1-10,3.1-16.4,3.1c-6.2,0-11.5-1-16-2.9c-4.5-2-8-4.7-10.6-8.3
			c-2.5-3.6-3.9-7.9-4.2-12.8h12.4c0.2,3,1.2,5.4,2.9,7.4c1.7,2,3.9,3.4,6.5,4.4s5.6,1.4,8.8,1.4c3.5,0,6.6-0.6,9.4-1.7
			c2.7-1.1,4.9-2.7,6.5-4.7s2.4-4.3,2.4-7c0-2.4-0.7-4.4-2.1-6c-1.4-1.6-3.2-2.8-5.6-3.9s-5-1.9-7.9-2.7l-9.7-2.6
			c-6.6-1.8-11.8-4.4-15.6-7.9c-3.8-3.5-5.8-8.1-5.8-13.8c0-4.7,1.3-8.9,3.9-12.4s6-6.3,10.4-8.2c4.4-2,9.3-2.9,14.8-2.9
			c5.6,0,10.5,1,14.7,2.9c4.3,2,7.6,4.6,10.1,8c2.5,3.4,3.7,7.3,3.9,11.7H495.5z"/>
	</g>
</g>
</svg>
