<?xml version="1.0" standalone="no"?>
<!DOCTYPE svg PUBLIC "-//W3C//DTD SVG 20010904//EN"
 "http://www.w3.org/TR/2001/REC-SVG-20010904/DTD/svg10.dtd">
<svg version="1.0" xmlns="http://www.w3.org/2000/svg"
 width="624.000000pt" height="624.000000pt" viewBox="0 0 624.000000 624.000000"
 preserveAspectRatio="xMidYMid meet">
<metadata>
Created by potrace 1.14, written by Peter Selinger 2001-2017
</metadata>
<g transform="translate(0.000000,624.000000) scale(0.100000,-0.100000)"
fill="#000000" stroke="none">
<path d="M829 5626 c-2 -2 -26 -7 -54 -11 -66 -8 -209 -56 -271 -91 -27 -15
-58 -32 -69 -38 -11 -6 -22 -13 -25 -16 -3 -3 -22 -17 -42 -33 -57 -43 -140
-127 -184 -187 -43 -58 -118 -190 -109 -190 3 0 -1 -10 -9 -22 -8 -13 -15 -26
-15 -31 0 -4 -8 -33 -17 -65 -9 -31 -19 -70 -22 -87 -3 -16 -7 -599 -8 -1295
-3 -1300 -4 -1267 30 -1415 17 -74 67 -184 123 -268 114 -171 290 -306 489
-371 66 -22 88 -26 187 -41 17 -2 483 -5 1035 -5 l1002 0 1 -43 c2 -154 0
-379 -3 -383 -2 -2 -344 -4 -759 -5 -415 0 -778 -5 -808 -9 -135 -23 -202
-102 -177 -209 23 -98 68 -139 199 -180 l82 -26 1675 -2 c1637 -3 1677 -3
1757 17 105 25 167 54 220 103 47 44 65 85 58 137 -6 50 -23 76 -64 103 -49
32 -125 51 -241 63 -14 1 -344 2 -735 3 l-710 1 2 202 c0 112 2 208 2 214 1 8
280 11 1000 11 549 0 1019 3 1043 7 76 11 113 19 138 29 8 3 33 11 55 18 171
52 360 196 469 359 38 56 98 165 95 172 0 2 5 17 11 33 6 17 21 64 33 105 l22
75 0 1280 c0 704 -3 1294 -7 1310 -5 17 -15 55 -23 85 -9 30 -17 62 -19 70 -5
20 -78 173 -85 180 -4 3 -18 23 -32 45 -102 156 -288 296 -473 357 -153 49
-45 47 -2482 48 -1254 0 -2282 -2 -2285 -4z m4561 -369 c43 -8 59 -12 85 -22
118 -46 180 -86 253 -163 28 -31 52 -59 52 -63 0 -4 6 -14 13 -21 20 -21 45
-80 63 -149 19 -73 21 -171 10 -569 -7 -260 -10 -357 -21 -790 -6 -243 -12
-440 -19 -710 -3 -102 -8 -277 -12 -390 -9 -323 2 -286 -110 -395 -82 -79 -86
-83 -147 -110 -119 -54 -10 -52 -2467 -50 -1251 1 -2284 5 -2295 8 -11 4 -36
10 -55 15 -78 20 -181 80 -240 142 -48 49 -99 148 -120 229 -15 60 -16 176
-15 1316 1 1006 4 1260 15 1300 15 57 65 169 89 198 38 46 100 107 110 107 6
0 11 4 11 9 0 5 14 14 30 21 17 7 30 16 30 21 0 5 9 9 19 9 11 0 23 4 26 10 3
5 25 15 48 21 57 17 65 19 117 27 52 9 4478 7 4530 -1z"/>
<path d="M554 4302 l1 -207 348 -2 c192 -1 351 -4 355 -7 3 -3 6 -390 6 -858
l1 -853 271 -3 272 -2 3 27 c2 16 4 403 4 861 l0 832 177 1 c98 0 207 0 243 0
36 0 110 0 164 0 l99 -1 7 -27 c5 -16 10 -37 12 -48 2 -11 22 -94 44 -185 23
-91 42 -174 44 -185 1 -11 3 -20 4 -20 2 0 5 -11 7 -25 3 -14 9 -43 15 -65 6
-22 13 -51 16 -65 2 -14 17 -77 33 -140 16 -63 31 -126 33 -140 3 -14 10 -43
15 -65 6 -22 13 -51 16 -65 3 -14 7 -35 10 -47 4 -13 8 -31 10 -40 2 -10 16
-65 30 -123 23 -97 43 -183 51 -220 1 -8 8 -35 15 -60 7 -25 13 -49 15 -55 3
-18 19 -90 20 -95 1 -3 4 -15 9 -28 l7 -22 317 2 316 3 13 50 c7 28 15 61 17
75 2 14 9 45 16 70 7 25 14 52 15 60 2 8 18 76 35 150 18 74 33 142 35 150 2
8 8 35 15 60 7 25 14 54 16 65 7 35 12 59 23 105 7 25 14 56 17 70 3 14 14 61
25 105 12 44 23 89 25 100 2 11 8 41 14 66 6 26 13 55 15 65 2 11 4 19 5 19 1
0 3 7 5 15 1 8 22 100 46 203 43 187 48 197 64 121 12 -57 16 -76 49 -211 20
-78 37 -152 40 -165 2 -12 27 -117 56 -233 45 -184 62 -257 75 -315 5 -20 75
-310 81 -335 3 -11 7 -31 10 -45 3 -14 11 -50 19 -80 8 -30 17 -69 20 -87 3
-18 9 -43 15 -57 l10 -26 314 0 c346 0 317 -5 331 57 2 10 11 50 20 88 9 39
20 88 25 110 5 22 11 47 14 55 3 8 8 26 10 40 5 27 10 47 32 133 3 12 8 38 11
57 3 19 10 43 15 53 5 10 7 21 4 24 -3 4 -1 12 5 20 6 7 9 13 6 13 -3 0 -1 16
5 36 5 20 11 44 13 53 2 9 13 57 25 106 12 50 23 97 25 105 2 8 15 67 30 130
15 63 28 122 30 130 2 8 20 83 40 165 20 83 38 159 41 170 9 46 62 273 70 300
2 6 6 22 9 37 3 15 16 75 30 133 14 58 25 109 25 114 0 6 -101 10 -260 9 -258
0 -260 0 -265 -22 -6 -25 -62 -261 -104 -440 -17 -70 -33 -138 -36 -150 -2
-11 -21 -88 -41 -171 -20 -82 -40 -166 -44 -185 -4 -19 -22 -96 -40 -170 -18
-74 -33 -139 -34 -145 -23 -112 -61 -254 -66 -248 -6 8 -31 103 -35 133 -1 8
-4 22 -8 30 -3 8 -11 42 -18 75 -7 33 -14 65 -15 70 -2 6 -5 20 -8 33 -3 13
-7 31 -10 40 -3 9 -7 28 -10 42 -2 14 -14 66 -26 115 -12 50 -23 97 -25 105
-2 8 -8 33 -14 55 -5 22 -13 55 -16 74 -3 19 -8 37 -10 41 -2 3 -6 17 -9 31
-7 33 -36 160 -41 182 -5 19 -13 51 -19 82 -3 11 -17 70 -31 130 -15 61 -29
119 -31 130 -2 11 -12 52 -22 90 l-17 70 -267 2 c-196 1 -268 -2 -269 -10 -1
-16 -9 -52 -33 -147 -3 -8 -16 -64 -30 -125 -47 -204 -115 -495 -136 -578 -11
-45 -23 -95 -26 -112 -3 -16 -18 -82 -33 -145 -16 -63 -46 -187 -66 -275 l-38
-160 -74 310 c-40 171 -80 339 -89 375 -8 36 -16 72 -18 80 -9 34 -78 326 -81
340 -4 22 -62 261 -87 362 l-22 87 -1186 0 -1187 0 1 -207z"/>
</g>
</svg>
